<svg xmlns="http://www.w3.org/2000/svg" xmlns:xlink="http://www.w3.org/1999/xlink" version="1.1" x="0px" y="0px" viewBox="0 0 100 125" enable-background="new 0 0 100 100" xml:space="preserve"><path fill="#ffffff" d="M56.242,24.428c0,0,0.738-0.368,1.475,1.29c0,0-1.29-1.359,3.501-1.325c4.792,0.035,13.82-0.886,13.82-0.886  s0.553,0,3.317-0.921c2.764-0.921,9.397-2.211,10.688-2.211s1.658-0.737,1.658,2.672c0,3.409,0.369,8.016-1.105,8.753  c-1.474,0.737-1.474,0.737-1.474,0.737l1.289,1.843c0,0-3.315,7.002-7.739,5.159c-4.423-1.842-2.579-1.105-2.579-1.105l0.185,1.415  c0,0-6.082,1.535-8.477-1.967l-0.186,2.302c0,0-1.842,0.646-2.948-1.75l-0.921,1.829c0,0-3.316,0.199-3.502-2.565l-0.921,2.569  c0,0-2.396-0.542-2.58-2.017l-2.026,2.017l-1.475,1.301h2.027l-0.185,14.189c0,0-0.554,3.687-1.844,4.423l1.844,1.842L57.9,72.708  l-1.658,1.844c0,0,1.844,1.474,1.844,3.132L57.9,80.633h-1.658c0,0,2.027,1.289,2.027,4.237l-0.185,4.055  c0,0,2.567-0.29,2.979,2.493c0,0,0.737,5.568,0.737,6.227c0,0.654-11.806,0.367-11.806,0.367L49.693,12.38  c0,0,0.888-3.316,1.256-5.896c0.369-2.58,0.738-4.546,3.072-4.668c2.334-0.123,3.809,0.737,3.809,2.58  c0,1.842,0.123,9.583,0.123,9.583S59.324,21.487,56.242,24.428z"/><path fill="#ffffff" d="M43.759,24.551c0,0-0.738-0.368-1.475,1.29c0,0,1.29-1.36-3.501-1.325c-4.791,0.035-13.82-0.886-13.82-0.886  s-0.553,0-3.317-0.922c-2.764-0.921-9.397-2.211-10.688-2.211s-1.659-0.736-1.659,2.672c0,3.409-0.368,8.016,1.106,8.753  c1.474,0.737,1.474,0.737,1.474,0.737l-1.29,1.843c0,0,3.316,7.002,7.74,5.16c4.422-1.843,2.58-1.105,2.58-1.105l-0.184,1.415  c0,0,6.081,1.534,8.476-1.968l0.184,2.302c0,0,1.844,0.646,2.949-1.749l0.921,1.828c0,0,3.317,0.199,3.501-2.565l0.921,2.569  c0,0,2.396-0.542,2.58-2.016l2.026,2.016l1.475,1.301h-2.027l0.184,14.189c0,0,0.553,3.686,1.843,4.422l-1.843,1.844L42.1,72.832  l1.659,1.842c0,0-1.843,1.475-1.843,3.133l0.184,2.948h1.659c0,0-2.027,1.291-2.027,4.238l0.184,4.054c0,0-2.569-0.29-2.979,2.494  c0,0-0.737,5.568-0.737,6.225s11.805,0.368,11.805,0.368l0.304-85.63c0,0-0.888-3.317-1.256-5.897  c-0.369-2.58-0.737-4.546-3.071-4.669c-2.335-0.123-3.809,0.737-3.809,2.58c0,1.843-0.123,9.583-0.123,9.583  S40.676,21.609,43.759,24.551z"/></svg>
